<?xml version="1.0" encoding="UTF-8"?>
<svg xmlns="http://www.w3.org/2000/svg" xmlns:xlink="http://www.w3.org/1999/xlink" width="180px" height="166px" viewBox="0 0 180 166" version="1.1">
<g id="surface1">
<path style="fill: rgb(40%, 60%, 100%); fill-rule: evenodd; stroke: none; fill-opacity: 1" d="M 77.1 88 C 84 82.8 93.8 84.2 99 91.1 C 104.1 98 102.8 107.7 95.9 112.9 C 89 118.1 79.2 116.7 74.1 109.9 C 68.9 103 70.3 93.2 77.1 88"/>
<path style="fill: rgb(0%, 0%, 0%); fill-rule: evenodd; stroke: none; fill-opacity: 1" d="M 88.9 123 L 106.8 109.4 C 108.7 108 111.2 108.1 112.4 109.7 L 129.6 132.5 C 130.8 134.1 130.2 136.6 128.3 138 L 126 139.7 L 136.2 153.2 C 137.7 155.2 137.3 158 135.3 159.5 L 129.1 164.2 C 127.1 165.6 124.3 165.2 122.8 163.3 L 112.7 149.8 L 110.4 151.5 C 108.5 152.9 106 152.8 104.8 151.2 L 87.6 128.4 C 86.4 126.8 87 124.4 88.9 123"/>
<path style="fill: none; stroke: rgb(14%, 12%, 13%); stroke-width: 2.2; stroke-linecap: butt; stroke-linejoin: miter; stroke-opacity: 1; stroke-miterlimit: 22.9256" d="M 888.6 430.4 L 1068 565.7 C 1086.8 579.8 1112 578.5 1123.9 562.7 L 1295.7 334.6 C 1307.6 318.9 1302 294.3 1283.2 280.2 L 1260.2 262.9 L 1361.9 127.9 C 1376.7 108.3 1372.7 80.1 1353.1 65.4 L 1290.9 18.5 C 1271.3 3.7 1243.2 7.7 1228.4 27.3 L 1126.7 162.2 L 1103.7 144.9 C 1084.9 130.7 1059.8 132.1 1047.9 147.9 L 876 375.9 C 864.1 391.8 869.7 416.3 888.6 430.4 Z M 888.6 430.4" transform="matrix(0.1,0,0,-0.1,0,166)"/>
<path style="fill: rgb(100%, 100%, 100%); fill-rule: evenodd; stroke: none; fill-opacity: 1" d="M 89.8 6.5 C 82.4 17.4 56.8 36 56.8 26.5 C 56.5 -0.3 16.1 23.5 39.4 36.7 C 47.8 41.4 16.3 56.4 3.2 57.7 C 4 70.8 13.5 94 18.5 85.9 C 32.6 63.1 52.6 100.4 25.8 99.5 C 16.3 99.2 28.5 117.6 39 125.5 L 39.8 126 C 52.9 124.5 71.6 118.4 68.2 113.2 C 53.5 84.3 88.3 65.5 106.3 89.2 C 110.4 94.5 122.1 82.5 129.4 71.6 C 128.2 58.5 118.3 35.2 113.5 43.5 C 100.3 66.7 79.1 30.5 105.9 30.3 C 115.4 30.3 102.6 11.5 91.8 4.1 L 89.8 6.5"/>
<path style="fill: none; stroke: rgb(14%, 12%, 13%); stroke-width: 56.7; stroke-linecap: butt; stroke-linejoin: miter; stroke-opacity: 1; stroke-miterlimit: 22.9256" d="M 897.9 1594.5 C 823.6 1486.2 568.5 1299.8 567.5 1395.3 C 564.9 1662.8 161.4 1424.6 394.4 1293.1 C 477.6 1246.1 163 1096.1 32.2 1083.4 C 39.6 952.2 134.6 720 185 801.2 C 325.9 1028.7 525.6 656.5 258.2 664.8 C 162.7 667.8 285.1 483.8 390.3 405.2 L 398.2 400.4 C 528.8 414.7 716.1 475.7 681.9 528.5 C 535 817.3 882.9 1004.5 1063.2 768.4 C 1104.1 715 1220.8 834.7 1293.8 943.9 C 1281.7 1074.8 1182.8 1308.2 1135.4 1225.2 C 1002.8 992.9 791.1 1355.4 1058.6 1356.7 C 1154.2 1357.2 1025.8 1544.6 917.8 1619.4 Z M 897.9 1594.5" transform="matrix(0.1,0,0,-0.1,0,166)"/>
</g>
</svg>
